<svg width="1759" height="872" viewBox="0 0 1759 872" fill="none" xmlns="http://www.w3.org/2000/svg">
<path d="M1259 383.5V215.5C1259 215.5 1324 214.5 1346 216.5C1368 218.5 1376.5 224 1388 237C1403.92 255 1408.5 281 1407 291.5C1405.5 302 1402.18 318.061 1384.5 333.5L1368 302.5H1362L1405 383.5H1259Z" fill="white"/>
<path d="M898 686V308H995.25H1085.5C1151.5 311 1184.08 330.302 1224.5 367.5C1268.62 421.661 1279.99 456.42 1273 526.5C1265.21 568.108 1255.58 588.973 1229.5 621.5C1230 619.5 1211 646 1174 665C1173.31 665.392 1172.63 665.777 1171.96 666.156C1141.55 683.193 1119.44 687.467 1027 686C932.5 684.5 898 686 898 686Z" fill="white"/>
<path d="M550.5 762V427.5L759.5 592H773L714 545V435.5H876V762H550.5Z" fill="white"/>
<path d="M535 583H51L222.846 872L288.94 762.562L258.159 708.315H270.056L364.665 872L535 583Z" fill="white"/>
<circle cx="283" cy="283" r="283" fill="white"/>
<path d="M1412 410.5H1298V636H1473.5V524H1412V410.5Z" fill="white"/>
<path d="M1576 252L1718.89 495H1433.11L1576 252Z" fill="white"/>
<path d="M1500 813V521.5H1651C1706 519 1785.38 576.177 1728.5 656.5C1796.5 712 1741 813 1652 813H1500Z" fill="white"/>
</svg>
